<?xml version="1.0" encoding="utf-8"?>
<!-- Generator: Adobe Illustrator 25.2.0, SVG Export Plug-In . SVG Version: 6.00 Build 0)  -->
<svg version="1.1" id="Layer_1" xmlns="http://www.w3.org/2000/svg" xmlns:xlink="http://www.w3.org/1999/xlink" x="0px" y="0px"
	 viewBox="0 0 500 500" style="enable-background:new 0 0 500 500;" xml:space="preserve">
<style type="text/css">
	.st0{fill:#F5F5F5;}
	.st1{fill:#263238;}
	.st2{fill:#FF8B7B;}
	.st3{fill:#407BFF;}
	.st4{opacity:0.2;}
	.st5{fill:#FFFFFF;}
	.st6{opacity:0.2;enable-background:new    ;}
	.st7{fill:#2C507C;}
	.st8{opacity:0.3;}
	.st9{opacity:0.3;fill:#407BFF;enable-background:new    ;}
	.st10{fill:#FF5652;}
	.st11{fill:#294A77;}
	.st12{opacity:0.7;fill:#FFFFFF;enable-background:new    ;}
	.st13{opacity:0.2;fill:#407BFF;enable-background:new    ;}
	.st14{fill:#5A87C5;}
	.st15{fill:#FFC3BD;}
	.st16{fill:#ED847E;}
</style>
<g id="freepik--Shadow--inject-159">
	<ellipse id="freepik--path--inject-159" class="st0" cx="250" cy="416.2" rx="193.9" ry="11.3"/>
</g>
<g id="freepik--character-1--inject-159">
	<path class="st1" d="M137.8,145.9c-8.1,8.1,5.6,20.7-3.4,26.5c7.4,3.7,33.3,8.4,40-6.2c-4.9-3.8-1.5-13.1-6-22.1
		C161.7,130.8,129.8,136.7,137.8,145.9z"/>
	<path class="st1" d="M138.6,145.7c-2.5-0.4-11,3.8-4.7,15.1c5.1,9.2,0.9,9.8,0.9,9.8s5,0.1,2-6.7
		C133.5,156.7,132.1,149.1,138.6,145.7z"/>
	<path class="st2" d="M198,217.6c-0.6-1.2-2.1-1.6-3.3-1l-0.6,0.3c-0.2,0.1-0.6,0.3-0.8,0.5s-0.6,0.4-0.9,0.5
		c-0.6,0.3-1.3,0.6-1.9,0.8c-1.2,0.4-2.5,0.7-3.9,0.7c-1.2,0-2.4-0.2-3.6-0.6c-0.7-0.3-1.4-0.6-2.1-1c-0.9-1.9-1.7-3.8-2.4-5.8
		c-0.9-2.3-1.6-4.7-2.3-7.1s-1.2-4.8-1.7-7.2c-0.2-1.2-0.5-2.4-0.7-3.6l-0.3-1.8c-0.1-0.6-0.2-1.2-0.2-1.7v-0.2
		c-0.3-2.8-2.7-4.8-5.5-4.5s-4.8,2.7-4.5,5.5c0.1,0.9,0.1,1.5,0.2,2.2s0.2,1.4,0.3,2.1c0.2,1.4,0.5,2.7,0.8,4.1
		c0.6,2.7,1.3,5.4,2.1,8c0.4,1.3,0.9,2.6,1.3,3.9s1,2.6,1.6,3.9c1.1,2.6,2.3,5.1,3.7,7.5l0.1,0.2c0.4,0.7,0.9,1.2,1.6,1.5
		c1.9,1,3.9,1.8,6.1,2.1c2.2,0.4,4.4,0.3,6.6-0.1c3-0.7,5.8-2.2,8.1-4.4c0.4-0.3,0.7-0.7,1-1.1s0.6-0.7,1-1.2
		C198.3,219.5,198.4,218.5,198,217.6z"/>
	<path class="st2" d="M204.6,208.2h-0.3c-1.9,0-3.8,0.8-5,2.3l-4.8,6.1v4.1c3.9,1.5,8.8-2.6,8.8-2.6l2.5-0.6
		c1.7-0.4,2.9-2.1,2.6-3.9l-0.4-2.4C207.8,209.5,206.4,208.3,204.6,208.2z"/>
	<path class="st3" d="M173.2,184.9c3.2,3.3,3.4,13.2,3.4,13.2l-12.9,10.4c0,0-5.3-14.7-2.4-19.9
		C163.9,184.2,169.1,180.6,173.2,184.9z"/>
	<g class="st4">
		<path class="st5" d="M173.2,184.9c3.2,3.3,3.4,13.2,3.4,13.2l-12.9,10.4c0,0-5.3-14.7-2.4-19.9
			C163.9,184.2,169.1,180.6,173.2,184.9z"/>
	</g>
	<polygon class="st2" points="151.9,407.7 159,408.5 160,389 152.8,388.3 	"/>
	<path class="st1" d="M160.2,403.8h-8.4c-0.4,0-0.6,0.3-0.7,0.6l-0.6,7.9c0,0.9,0.7,1.6,1.6,1.6c3.5,0,3.6,0,8,0H172
		c3.7,0,3.7-3.7,2.1-4c-7.1-1.5-9.9-3.6-12.4-5.6C161.3,404,160.7,403.8,160.2,403.8z"/>
	<polygon class="st6" points="160,389.1 159.5,399.1 152.3,399.1 152.8,388.3 	"/>
	<path class="st1" d="M163.8,234.3c0,0,6.2,51.7,6.2,74.7c-4.9,32-9,88.2-9,88.2l-9.9-0.3c0,0-4.5-61.2-0.3-87.6
		c-5.3-23.7-11.9-78.3-11.9-78.3L163.8,234.3z"/>
	<path class="st6" d="M144.8,248.7c-1.2,0.5-2.3,1.1-3.4,1.8c1.4,10.2,3.1,23.1,5.1,34.9C149.6,275.6,147.9,254.1,144.8,248.7z"/>
	<polygon class="st2" points="74.5,389.7 80.4,393.8 90.6,377.2 84.7,373.1 	"/>
	<path class="st1" d="M81.9,391.6l-5-6.7c-0.2-0.3-0.6-0.4-0.9-0.2l-6.7,4.3c-0.7,0.5-0.9,1.5-0.3,2.2c2.1,2.9,2.1,2.9,4.8,6.4
		c1.6,2.2,4.9,6.5,7.1,9.5s5.2,0.7,4.5-0.8c-3-6.6-3-10-2.9-13.2C82.4,392.6,82.2,392.1,81.9,391.6z"/>
	<polygon class="st6" points="90.6,377.2 85.3,385.8 79,382.3 84.7,373.1 	"/>
	<path class="st7" d="M110.7,396.6c-5.1,0-15.8,0-15.9-7.5c-0.1-5.9,7.2-8.4,13.5-8.6c2.9-0.1,5.4,2.1,5.6,5.1c0,0,0,0,0,0v0.4
		c7.1-0.3,11.8-1.9,13.4-4.6c3.8-6-3.5-21.5-10.5-36.5c-8.3-17.6-17.7-37.6-17.9-56.7c0-2.9,2.3-5.3,5.3-5.4c0,0,0,0,0,0l0,0
		c2.9,0,5.3,2.4,5.3,5.3c0.2,16.8,9,35.6,16.9,52.2c9,19.2,16.8,35.8,9.9,46.7C132.1,393.5,123.8,396.6,110.7,396.6z"/>
	<path class="st1" d="M155.9,233.2c0,0-17.1,59.1-25.4,80.6c-16.1,28.1-42.9,71-42.9,71l-8.6-5c0,0,20-49.6,33.4-72.7
		c3.6-24,17.3-77.3,17.3-77.3L155.9,233.2z"/>
	<path class="st3" d="M83.4,396.4c0.3,0.6,0.9,1,1.5,1.2c0.4,0.1,0.8,0,1-0.3c0.2-0.2,0.3-0.4,0.2-0.6c-0.1-1.2-3.2-2.8-3.8-3.1
		c-0.1,0-0.2,0-0.2,0.1c0,0.1,0,0.2,0,0.2C82.5,394.8,82.9,395.7,83.4,396.4z M85.6,396.4c0.1,0.1,0.1,0.2,0.2,0.4
		c0,0.1,0,0.2-0.1,0.2c-0.2,0.2-0.4,0.3-0.7,0.2c-0.7-0.1-1.5-1.2-2.4-2.9C83.7,394.9,84.7,395.5,85.6,396.4L85.6,396.4z"/>
	<path class="st3" d="M82.1,394L82.1,394c1.1,0.6,3.7,1,4.2,0.2c0.2-0.3,0.2-0.7-0.1-1c-1-1.8-4,0.3-4.1,0.4c-0.1,0-0.1,0.1-0.1,0.2
		C82,393.9,82,393.9,82.1,394z M85.9,393.4c0,0,0.1,0.1,0.1,0.1c0.1,0.2,0.1,0.3,0.1,0.4c-0.3,0.5-2.2,0.3-3.4-0.1
		C83.4,393.4,85.1,392.5,85.9,393.4z"/>
	<path class="st3" d="M165,405.4c0.7,0.1,1.3-0.1,1.9-0.5c0.3-0.2,0.4-0.6,0.3-1c0-0.2-0.2-0.4-0.4-0.5c-1-0.6-4.1,0.9-4.7,1.3
		c-0.1,0-0.1,0.1-0.1,0.2c0,0.1,0.1,0.1,0.2,0.2C163.1,405.3,164,405.4,165,405.4z M166.2,403.7c0.1,0,0.3,0,0.4,0.1
		c0.1,0,0.1,0.1,0.1,0.2c0.1,0.2,0,0.5-0.2,0.7c-0.5,0.5-1.9,0.5-3.7,0.2C163.9,404.3,165,403.9,166.2,403.7L166.2,403.7z"/>
	<path class="st3" d="M162.2,405.1L162.2,405.1c1.1-0.5,3-2.3,2.7-3.2c-0.1-0.3-0.5-0.5-0.8-0.5c-2-0.2-2.1,3.4-2.1,3.5
		c0,0.1,0,0.2,0.1,0.2C162.1,405.1,162.1,405.1,162.2,405.1z M164,401.7h0.1c0.2,0,0.3,0.1,0.4,0.2c0.2,0.5-1.1,2-2.1,2.6
		C162.5,403.6,162.8,401.7,164,401.7L164,401.7z"/>
	<path class="st3" d="M129.8,229.9l34.1,4.4c7.7-25.9,10.2-38.3,10.9-44.4c0.4-3.1-1.5-6.1-4.5-7c-2-0.6-4.6-1.4-7.1-2
		c-0.9-0.2-1.8-0.4-2.6-0.6c-5.1-1-10.3-1.7-15.5-2c-0.8-0.1-1.5-0.1-2.3-0.1c-1.5-0.1-3-0.1-4.4-0.1c-4.1,0-7.4,3.3-7.4,7.3
		c0,0.2,0,0.4,0,0.7c0.3,3,0.5,5.8,0.6,8.4c0.4,6,0.5,10.8,0.4,15C131.8,216.3,131.1,223.1,129.8,229.9z"/>
	<g class="st8">
		<path class="st5" d="M129.8,229.9l34.1,4.4c7.7-25.9,10.2-38.3,10.9-44.4c0.4-3.1-1.5-6.1-4.5-7c-2-0.6-4.6-1.4-7.1-2
			c-0.9-0.2-1.8-0.4-2.6-0.6c-5.1-1-10.3-1.7-15.5-2c-0.8-0.1-1.5-0.1-2.3-0.1c-1.5-0.1-3-0.1-4.4-0.1c-4.1,0-7.4,3.3-7.4,7.3
			c0,0.2,0,0.4,0,0.7c0.3,3,0.5,5.8,0.6,8.4c0.4,6,0.5,10.8,0.4,15C131.8,216.3,131.1,223.1,129.8,229.9z"/>
	</g>
	<path class="st9" d="M132,209.3c4.5-5.8,6.1-12.5,4.7-16.1l-5.1,1.1C132,200.3,132.1,205.1,132,209.3z"/>
	<path class="st5" d="M163.1,180.8c-0.9-0.2-1.8-0.4-2.6-0.6c-5.1-1-10.3-1.7-15.5-2c-0.8-0.1-1.5-0.1-2.3-0.1l-1.3-0.1l1,1.8
		c0.1,0.2,3.5,5.8,12,11.8l1.8,1.3l1.7-1.3c3.4-2.4,5.4-6.3,5.5-10.5L163.1,180.8z"/>
	<path class="st2" d="M148.7,167.9c-0.3,4.2-1.3,8.5-3.8,10.3c0,0,3.1,5.2,11.2,10.9c5.1-3.9,4.3-8.9,4.3-8.9c-5.4-2-5-5.7-2.7-11.7
		l-4.2-2.3c-1-1.1-2.8-1.2-3.9-0.2C149.1,166.5,148.8,167.2,148.7,167.9z"/>
	<path class="st6" d="M153.5,166.3c-1-1.1-2.8-1.2-3.9-0.2c-0.4,0.4-0.7,0.9-0.8,1.5c1.6,3.2,4.2,5.8,7.4,7.5
		c0.1-2.3,0.6-4.5,1.6-6.5L153.5,166.3z"/>
	<path class="st2" d="M142.2,154.7c2.1,8.1,2.8,11.6,7.8,15c7.5,5.1,17,0.8,17.4-7.8c0.4-7.7-3.1-19.7-11.8-21.4
		c-6.2-1.3-12.2,2.7-13.5,8.9C141.6,151.2,141.7,153,142.2,154.7z"/>
	<path class="st1" d="M162.9,142.2c-4.9,4.4-10.7,7.6-17,9.4c0,0,6.2,13.2-5.4,9.9c-3.4-11.2,0-17.1,3-19.8
		C152.7,138.6,159.2,137.6,162.9,142.2z"/>
	<path class="st2" d="M141.8,162.7c0.7,1.5,1.9,2.6,3.4,3.2c2,0.7,3.2-1,2.8-3c-0.4-1.8-1.9-4.3-4-4.2c-1.5,0.1-2.6,1.5-2.5,3
		C141.5,162,141.6,162.4,141.8,162.7z"/>
	<path class="st3" d="M129.5,227.8l-1.9,2.9c-0.2,0.2,0.1,0.5,0.5,0.6l35.7,4.6c0.3,0,0.6-0.1,0.6-0.3l0.7-3c0-0.2-0.2-0.4-0.5-0.5
		l-34.5-4.4C129.9,227.6,129.7,227.7,129.5,227.8z"/>
	<path class="st1" d="M133.6,232.3l-0.9-0.1c-0.2,0-0.3-0.1-0.3-0.2l0.9-3.9c0.1-0.1,0.2-0.2,0.4-0.2l0.9,0.1c0.2,0,0.3,0.1,0.3,0.2
		l-0.9,3.9C134,232.2,133.8,232.3,133.6,232.3z"/>
	<path class="st1" d="M161.1,235.8l-0.9-0.1c-0.2,0-0.3-0.1-0.3-0.3l0.9-3.9c0-0.1,0.2-0.2,0.4-0.2l0.9,0.1c0.2,0,0.3,0.1,0.3,0.2
		l-0.9,3.9C161.5,235.8,161.3,235.8,161.1,235.8z"/>
	<path class="st1" d="M147.4,234.1l-0.9-0.1c-0.2,0-0.3-0.1-0.3-0.2l0.9-3.9c0-0.1,0.2-0.2,0.4-0.2l0.9,0.1c0.2,0,0.3,0.1,0.3,0.2
		l-0.9,3.9C147.8,234,147.6,234.1,147.4,234.1z"/>
	<path class="st1" d="M156.1,154.4c0.1,0.7,0.6,1.1,1,1.1s0.7-0.7,0.6-1.4s-0.6-1.1-1-1.1S156,153.7,156.1,154.4z"/>
	<path class="st1" d="M163.7,152.9c0.1,0.7,0.6,1.1,1,1.1s0.7-0.7,0.6-1.4s-0.6-1.1-1-1.1S163.5,152.2,163.7,152.9z"/>
	<path class="st1" d="M164,151.6l1.5-0.8C165.5,150.9,165,152.3,164,151.6z"/>
	<path class="st10" d="M161.7,154.4c0.9,1.4,2,2.7,3.2,3.8c-0.6,0.6-1.4,1-2.3,0.9L161.7,154.4z"/>
	<path class="st1" d="M156.9,161.8c-0.1,0.1-0.1,0.2,0,0.3c0.1,0.1,0.1,0.1,0.2,0c1.5-0.8,3.3-0.8,4.9,0c0.1,0.1,0.2,0,0.3-0.1
		c0.1-0.1,0-0.2-0.1-0.3C160.6,161,158.7,161,156.9,161.8C157,161.8,157,161.8,156.9,161.8z"/>
	<path class="st1" d="M153.5,152.3c0.1,0,0.1-0.1,0.1-0.2c0.4-0.9,1.3-1.6,2.3-1.8c0.2,0,0.4-0.2,0.4-0.4c0,0,0,0,0,0
		c0-0.2-0.2-0.4-0.4-0.4c0,0,0,0,0,0c-1.3,0.2-2.3,1.1-2.9,2.2c-0.1,0.2,0,0.4,0.2,0.5C153.2,152.4,153.4,152.4,153.5,152.3z"/>
	<path class="st1" d="M165.9,147.2L165.9,147.2c0.2-0.2,0.1-0.5,0-0.6c0,0,0,0,0,0c-1-0.8-2.4-1-3.6-0.5c-0.2,0.1-0.3,0.3-0.2,0.5
		c0.1,0.2,0.3,0.3,0.5,0.2c1-0.3,2-0.1,2.9,0.5C165.6,147.4,165.8,147.4,165.9,147.2z"/>
	<path class="st1" d="M156.5,153.1l1.5-0.8C158,152.3,157.4,153.7,156.5,153.1z"/>
	<path class="st11" d="M104.1,293.5c-2.9,0-5.3-2.4-5.3-5.3c-0.1-14.2,4.6-26.2,13.7-34.7c11.2-10.4,28.6-15.3,49.2-13.7
		c14.4,1.1,23.6-2.4,34.3-6.4c1.8-0.7,3.5-1.3,5.4-2c2.8-1,5.8,0.4,6.8,3.2c1,2.8-0.4,5.8-3.2,6.8l0,0c-1.8,0.6-3.5,1.3-5.2,1.9
		c-10.9,4.1-22.1,8.4-38.9,7.1c-17.5-1.4-32.1,2.5-41.1,10.8c-7,6.5-10.4,15.5-10.3,26.8C109.5,291,107.1,293.4,104.1,293.5
		C104.2,293.5,104.2,293.5,104.1,293.5L104.1,293.5z"/>
	<path class="st3" d="M227.1,248.9l-21.4,7.8c-3.7,1.4-7.8-0.5-9.2-4.3l-8.8-24.1c-1.4-3.7,0.5-7.8,4.3-9.2l21.4-7.8l0,0
		L227.1,248.9L227.1,248.9z"/>
	<path class="st12" d="M227.1,248.9l-21.4,7.8c-3.7,1.4-7.8-0.5-9.2-4.3l-8.8-24.1c-1.4-3.7,0.5-7.8,4.3-9.2l21.4-7.8l0,0
		L227.1,248.9L227.1,248.9z"/>
	<path class="st13" d="M203.8,214.8l9.6-3.5l13.8,37.6l-9.6,3.5c-0.6-0.6-1.1-1.4-1.4-2.2l-12-32.8
		C203.9,216.6,203.7,215.7,203.8,214.8z"/>
	<rect x="235" y="220.7" transform="matrix(0.939 -0.344 0.344 0.939 -62.6841 94.6835)" class="st3" width="1" height="6.7"/>
	<path class="st3" d="M232.4,217.2l-3.4-9.2c-1.2-3.2-4.2-5.3-7.6-5.3c-0.9,0-1.9,0.2-2.8,0.5l-6.1,2.2l-0.4-0.9l6.1-2.2
		c1-0.4,2.1-0.6,3.1-0.6c3.8,0,7.3,2.4,8.6,6l3.4,9.2L232.4,217.2z"/>
	<path class="st14" d="M236.2,248.4l-8.9,3.2c-2.9,1.1-6.1-0.5-7.2-3.4L208,214.8c-1.1-2.9,0.5-6.1,3.4-7.2l8.9-3.2
		c2.9-1.1,6.1,0.5,7.2,3.4l12.1,33.5C240.7,244.1,239.2,247.3,236.2,248.4z"/>
	<path class="st5" d="M222.2,217.9c0.6,1.6-0.2,3.3-1.8,3.8s-3.3-0.2-3.8-1.8c-0.6-1.6,0.2-3.3,1.8-3.8c0,0,0,0,0,0
		C219.9,215.5,221.6,216.3,222.2,217.9z"/>
	<path class="st5" d="M229.7,238.3c0.6,1.6-0.2,3.3-1.8,3.8c-1.6,0.6-3.3-0.2-3.8-1.8c-0.6-1.6,0.2-3.3,1.8-3.8
		C227.4,235.9,229.1,236.7,229.7,238.3C229.7,238.3,229.7,238.3,229.7,238.3z"/>
	<path class="st2" d="M142,235.9L142,235.9c-1.6-1.6-3.3-3.3-4.8-5.1s-2.9-3.5-4.3-5.3c-1.3-1.8-2.5-3.6-3.6-5.5
		c-0.8-1.4-1.4-2.8-1.9-4.3c0.6-2,1.2-4,2-5.9c0.9-2.3,1.9-4.6,2.9-6.8s2.2-4.4,3.4-6.6c0.6-1.1,1.2-2.1,1.9-3.2l1-1.5
		c0.3-0.5,0.7-1,0.9-1.4l0.1-0.2c1.5-2.3,0.9-5.4-1.4-6.9c-2.2-1.4-5.1-0.9-6.7,1.2c-0.5,0.7-0.9,1.2-1.3,1.8s-0.8,1.2-1.1,1.8
		c-0.7,1.2-1.4,2.4-2.1,3.6c-1.4,2.4-2.6,4.9-3.7,7.4c-0.6,1.3-1,2.6-1.6,3.8s-0.9,2.6-1.3,3.9c-0.8,2.7-1.5,5.4-2.1,8.1v0.2
		c-0.2,0.7-0.1,1.5,0.2,2.2c1,2.6,2.3,5,3.8,7.2c1.5,2.1,3.1,4.1,4.9,6c1.8,1.8,3.6,3.5,5.6,5.1c2,1.6,4,3,6.2,4.3
		c1.2,0.7,2.7,0.3,3.4-0.9C143,237.9,142.9,236.7,142,235.9L142,235.9z"/>
	<path class="st2" d="M153.6,240.8l-0.1-0.3c-0.8-1.8-2.5-3-4.4-3.4l-7.6-1.5l-3.7,1.9c0.4,4.2,6.3,6.6,6.3,6.6l1.7,1.9
		c1.2,1.3,3.2,1.6,4.6,0.6l2-1.4C153.9,244.2,154.4,242.4,153.6,240.8z"/>
	<path class="st3" d="M135.2,178.6c-4.2,1.9-8.7,8.6-8.7,8.6l9,16.9c0,0,10.2-11.8,9.4-17.7C144.2,181.4,140.6,176.2,135.2,178.6z"
		/>
	<g class="st8">
		<path class="st5" d="M135.2,178.6c-4.2,1.9-8.7,8.6-8.7,8.6l9,16.9c0,0,10.2-11.8,9.4-17.7C144.2,181.4,140.6,176.2,135.2,178.6z"
			/>
	</g>
</g>
<path class="st3" d="M357,406.2c-0.6,0-1.2-0.1-1.6-0.4c-0.3-0.3-0.5-0.7-0.4-1.1c0-0.2,0.1-0.5,0.4-0.6c0.9-0.5,3.7,1.2,4,1.4
	c0.1,0,0.1,0.1,0.1,0.2c0,0.1-0.1,0.1-0.2,0.2C358.5,406.1,357.8,406.2,357,406.2z M355.7,404.4c-0.1,0-0.2,0-0.3,0
	c0,0-0.1,0.1-0.1,0.2c0,0.3,0.1,0.5,0.3,0.7c0.5,0.4,1.6,0.4,3,0.1C357.8,405,356.8,404.6,355.7,404.4L355.7,404.4z"/>
<path class="st3" d="M359.2,405.9h-0.1c-0.9-0.5-2.6-2.3-2.4-3.3c0.1-0.3,0.3-0.5,0.6-0.5c0.3,0,0.6,0,0.9,0.2
	c1,0.8,1.2,3.2,1.2,3.4c0,0.1,0,0.1-0.1,0.2C359.3,405.9,359.2,405.9,359.2,405.9z M357.5,402.5L357.5,402.5c-0.4,0-0.4,0.2-0.4,0.2
	c-0.1,0.5,1,2,1.8,2.6c-0.1-1-0.4-1.9-1-2.7C357.8,402.5,357.7,402.5,357.5,402.5L357.5,402.5z"/>
<g>
	<path class="st11" d="M423.3,399.4c-8.8,0-17.5-1.8-21.7-7.3c-19.9-26-19.7-78.3-19.5-128.9c0.1-27.2,2.2-53-0.8-73
		c-1.8-11.8-8-19.9-14.3-24.1c-9.3-6.2-22.1-2.9-27.6-1.4c-2.8,0.8-5.8-0.9-6.6-3.7c-0.8-2.8,0.9-5.8,3.7-6.6c0.1,0,0.1,0,0.2-0.1
		c6.8-1.8,22.9-5.9,36.1,2.9c9,5.9,16.7,16.5,18.9,31.4c3.1,20.8,1,46.9,0.9,74.6c-0.2,48.8-0.3,99.3,17.3,122.4
		c1.4,1.9,7,3.5,16.2,3c0.8,0,1.6-0.1,2.4-0.2c-0.4-0.7-0.5-1.5-0.5-2.3c0-2.9,2.4-5.3,5.3-5.3l0,0c11.6,0,17.8,1,18.9,6.3
		c0.3,1.5,0.5,5.4-5.1,8C443.1,397.2,433.1,399.4,423.3,399.4z"/>
	<polygon class="st15" points="306.9,404 296,399.8 301.7,380.9 312.6,385.2 	"/>
	<path class="st1" d="M295.8,398.6l12.2,4.8c0.3,0.1,0.5,0.5,0.5,0.8l-1.2,7.6c-0.1,0.7-0.8,1.1-1.4,1c-0.1,0-0.2,0-0.3-0.1
		c-3.1-1.3-7.9-3.4-11.8-4.9c-2.4-0.9-6.9-2.4-10.2-3.7s-2.5-4.7-1-4.5c6.6,1.1,9.1-0.1,11.7-1C294.8,398.4,295.3,398.4,295.8,398.6
		z"/>
	<polygon class="st6" points="312.6,385.2 301.7,380.9 298.8,390.6 309.6,394.9 	"/>
	<path class="st11" d="M326.2,239.6c0,0-9.8,48.5-13.6,72.5c-4.2,26.8-15.4,75.8-15.4,75.8l14.4,5.7c0,0,20.6-50.2,23.5-74.5
		c8.6-19.8,25.9-77.9,25.9-77.9L326.2,239.6z"/>
	<polygon class="st1" points="296.5,388 312.4,394.2 315.1,389.4 297.4,382.1 	"/>
	<path class="st3" d="M292.6,398.8c-0.6-0.2-1-0.5-1.4-1c-0.2-0.4-0.2-0.8,0-1.1c0.1-0.2,0.3-0.4,0.5-0.4c1-0.1,3,2.5,3.2,2.8
		c0,0.1,0,0.2,0,0.2c0,0.1-0.1,0.1-0.2,0.1C294.1,399.2,293.3,399.1,292.6,398.8z M292.1,396.7c-0.1,0-0.2-0.1-0.3,0
		c-0.1,0-0.1,0-0.2,0.2c-0.1,0.2-0.1,0.5,0,0.8c0.3,0.5,1.3,1,2.7,1.2C293.8,398,293,397.3,292.1,396.7z"/>
	<path class="st3" d="M294.8,399.3C294.7,399.3,294.7,399.3,294.8,399.3c-0.7-0.8-1.6-3.2-1.1-4c0.2-0.3,0.5-0.4,0.8-0.2
		c0.3,0.1,0.6,0.3,0.7,0.5c0.6,1.1-0.1,3.5-0.1,3.5c0,0.1-0.1,0.1-0.2,0.1C294.9,399.4,294.8,399.3,294.8,399.3z M294.4,395.5
		L294.4,395.5c-0.3-0.1-0.4,0-0.4,0.1c-0.3,0.5,0.2,2.2,0.8,3.1c0.3-0.9,0.3-1.9,0-2.8C294.7,395.7,294.6,395.6,294.4,395.5z"/>
	<path class="st6" d="M347.3,269c-5.4,6.7-7.6,23.9-7.6,38.2c3.7-10.1,7.9-23,11.6-34.6L347.3,269z"/>
	<polygon class="st15" points="372.2,405.8 360.5,405.8 359,386.2 370.6,386.2 	"/>
	<path class="st1" d="M359.9,404.9H373c0.3,0,0.6,0.2,0.7,0.6l1.7,7.5c0.1,0.7-0.3,1.3-1,1.5c-0.1,0-0.2,0-0.3,0
		c-3.3-0.1-8.5-0.3-12.7-0.3c-2.6,0-7.4,0.3-10.9,0.3s-4-3.5-2.6-3.8c6.5-1.4,8.5-3.4,10.5-5.3C358.9,405,359.3,404.9,359.9,404.9z"
		/>
	<polygon class="st6" points="370.6,386.2 359,386.2 359.8,396.3 371.4,396.3 	"/>
	<path class="st11" d="M340.3,240.2c0,0,6.5,54.1,7.8,73.6c1.9,27.1,9.2,80.6,9.2,80.6h15.5c0,0,1.7-54.6-1.1-79
		c3.9-21.2,2.6-73.6,2.6-73.6L340.3,240.2z"/>
	<polygon class="st1" points="356.7,394.7 373.7,394.7 374.5,389.3 355.3,388.9 	"/>
	<path class="st15" d="M345.6,165.6L345.6,165.6l-9.3-0.1c-3.1,0-6.3-0.1-9.4-0.1c-0.9,0-1.9-0.1-2.8-0.1c0.1,0,0.1-0.1,0.1-0.2
		c0.7-0.7,1.3-1.4,2-2.1c0.3-0.4,0.7-0.7,1-1.1c0.3-0.3,0.7-0.7,0.9-1l0.9-1.1c1.8-2.2,1.4-5.5-0.9-7.3c-1.3-1-3-1.3-4.5-0.9
		l-1.9,0.5c-0.6,0.2-1.1,0.4-1.7,0.6c-1.1,0.4-2.2,0.8-3.3,1.3c-2.2,1-4.3,2.1-6.4,3.4c-2.1,1.3-4.1,2.9-6,4.5
		c-2,1.8-3.7,3.8-5.3,5.9c-0.4,0.5-0.7,1.1-1,1.7c-1.9,4.4,0.1,9.6,4.5,11.5l0.9,0.4c2.1,0.9,4.2,1.6,6.4,2.1
		c1.9,0.5,3.7,0.8,5.5,1.1s3.5,0.5,5.2,0.8s3.4,0.4,5.1,0.5c3.4,0.3,6.8,0.4,10.1,0.6s6.6,0.1,10.1-0.1c5.7-0.2,10.2-5.1,10-10.9
		C355.7,170.1,351.2,165.7,345.6,165.6L345.6,165.6z"/>
	<path class="st1" d="M351.1,183.9c-8.1,9.2-27.5,5.8-27.5,5.8l1.1-22.9c6.7-1.5,13.4-2.3,20.3-2.4
		C356.3,164.4,357.5,176.5,351.1,183.9z"/>
	<path class="st1" d="M329.5,176.8c-0.5,3.7-1,8.7-1.3,15.4c-4.2,21.3-5.8,36.4-2.1,47.4c2.9,3.6,41.2,2.9,48.1,2.2
		c4-9.9,4.4-38.3,4.9-62.2c0.1-6.8-4.7-12.7-11.5-13.8c-8.6-1.5-17.4-1.8-26.1-0.9C335.3,165.6,330.4,170.6,329.5,176.8z"/>
	<path class="st6" d="M366.7,191.4c0.1,7.3,5.4,18.9,11.4,24.8c0.4-6.1,0.6-12.8,0.8-19.6L366.7,191.4z"/>
	<path class="st15" d="M400.1,205.5l-0.3-0.8c-1.4-3.3-3-6.6-4.9-9.7c-1.8-3-3.7-5.8-5.7-8.6s-4.1-5.3-6.3-7.9
		c-1.1-1.3-2.2-2.5-3.3-3.7l-1.7-1.8l-1.8-1.9c-4.1-4-10.7-4-14.7,0.1c-3.9,3.9-4,10.2-0.3,14.3l0.3,0.3l5.9,6.5
		c2,2.2,3.9,4.5,5.8,6.7c0.9,1.1,1.9,2.3,2.7,3.4s1.8,2.3,2.6,3.4c1.2,1.7,2.4,3.4,3.5,5.1c-0.2,0.9-0.4,1.7-0.6,2.5
		c-0.7,2.4-1.6,4.8-2.5,7.1c-1,2.5-2.1,5-3.2,7.5s-2.3,5.1-3.3,7.6l-0.1,0.2c-1.1,2.7,0.1,5.8,2.8,6.9c1.9,0.8,4.1,0.4,5.6-1
		c2.2-2,4.3-4.2,6.3-6.5c2-2.2,3.9-4.6,5.6-7.1c0.9-1.2,1.7-2.6,2.6-3.9c0.9-1.4,1.7-2.8,2.4-4.2c0.8-1.6,1.5-3.2,2.1-4.9
		c0.8-2.2,1.2-4.4,1.3-6.7C400.7,207.6,400.5,206.5,400.1,205.5z"/>
	<path class="st1" d="M368.4,165.9c13.5,2.3,22.3,20.6,22.3,20.6L374.5,204c0,0-9.4-9.5-15-18.4C353.4,176,358.8,164.3,368.4,165.9z
		"/>
	<path class="st1" d="M343.8,137.1c-2.3-3.8-3-9,1.1-14.3c-1.6,0.2-3.3-0.6-4.1-2c4.5-3.7,10.2-5.7,16.1-5.6c12.1,0,13,4.7,12.6,7.9
		c8.3,0.5,14.3,22.1-6.7,25.9C350.8,136.3,343.8,137.1,343.8,137.1z"/>
	<path class="st1" d="M368.7,123.5c0,0,3.4-3.4-0.8-7.6c1.9,0.5,3.4,2,3.9,3.9C372.4,122.2,370.8,124.2,368.7,123.5z"/>
	<path class="st15" d="M364.1,146.3c-0.3,6.6-0.9,14.2,0.2,19.5c-1.7,2.7-6.1,5.8-14,6.5c-2.8-1.6-6.5-5.5-5.2-7.5
		c3.4-2.1,4.8-8.7,3.8-13.5L364.1,146.3z"/>
	<path class="st6" d="M360.2,147.6l-11.4,3.7c0.4,2.1,0.4,4.2,0,6.3c3.4-0.1,8.1-2.7,9.9-5.1C360,151.2,360.5,149.4,360.2,147.6z"/>
	<path class="st15" d="M367.4,135.8c-2.1,8.1-2.9,13-7.9,16.4c-7.5,5.1-16.9-0.6-17.3-9.2c-0.3-7.7,3.2-19.7,11.9-21.4
		c6.2-1.2,12.2,2.8,13.5,9C367.9,132.3,367.9,134.1,367.4,135.8z"/>
	<path class="st1" d="M365.7,124.2c-3.6,2.5-8,13.3,1,17.6C374.8,134.7,372.7,124.2,365.7,124.2z"/>
	<path class="st1" d="M367.8,125.5c1.5-7.1-16.3-10.7-22-2.5C343.9,128,366.7,132.4,367.8,125.5z"/>
	<path class="st1" d="M354.5,144.5L354.5,144.5c-1.9-0.8-3.8-1.3-5.9-1.5c-0.1,0-0.2,0.1-0.2,0.2c0,0,0,0,0,0c0,0.1,0.1,0.2,0.3,0.2
		c1.9,0.1,3.9,0.6,5.6,1.4c0.1,0.1,0.3,0,0.3-0.1C354.6,144.6,354.6,144.5,354.5,144.5C354.5,144.5,354.5,144.5,354.5,144.5z"/>
	<path class="st15" d="M369.4,144.7c-1.4,1.5-3.4,2.4-5.6,2.5c-2.8,0.1-3.5-2.6-2.2-4.9c1.2-2,4.1-4.6,6.7-3.5
		S371.1,142.8,369.4,144.7z"/>
	<path class="st1" d="M354.5,135.7c-0.1,0.7-0.6,1.1-1,1.1s-0.7-0.7-0.5-1.4s0.6-1.1,1-1S354.6,135,354.5,135.7z"/>
	<path class="st1" d="M346.9,134.2c-0.1,0.7-0.6,1.1-1,1.1s-0.7-0.7-0.6-1.4s0.6-1.1,1-1.1S347,133.6,346.9,134.2z"/>
	<path class="st16" d="M349.2,135c-1.2,1.9-2.7,3.6-4.3,5.1c1,1.3,3.2,1.1,3.2,1.1L349.2,135z"/>
	<path class="st1" d="M353.4,131.8c0.1,0,0.3,0,0.4,0.1c0.7,0.8,1.6,1.2,2.7,1.1c0.2,0,0.4,0.1,0.5,0.3c0,0.2-0.1,0.4-0.3,0.4
		c0,0,0,0,0,0c-1.3,0.1-2.5-0.4-3.4-1.4c-0.2-0.1-0.2-0.4,0-0.6c0,0,0,0,0,0C353.2,131.9,353.3,131.8,353.4,131.8z"/>
	<path class="st1" d="M344.6,129.6c-0.1,0-0.2-0.1-0.2-0.1c-0.1-0.2-0.1-0.4,0.1-0.6c0,0,0,0,0,0c1-0.8,2.3-1.1,3.6-0.8
		c0.2,0.1,0.3,0.3,0.3,0.5c-0.1,0.2-0.3,0.3-0.5,0.2l0,0c-1-0.3-2,0-2.8,0.6C344.8,129.6,344.7,129.6,344.6,129.6z"/>
	<path class="st15" d="M376.9,235.6l-8.6-0.1l4.4,9.9c0,0,7.3-1.6,6.9-5.6L376.9,235.6z"/>
	<path class="st15" d="M363.9,242.3l1.4,2.8c0.8,1.5,2.6,2.2,4.2,1.6l3.2-1.3l-4.4-9.9l-3.4,2.6
		C363.6,239.1,363.2,240.8,363.9,242.3z"/>
	<path class="st11" d="M311.5,228.3c-2.9,0-5.3-2.4-5.3-5.4c0-1.3,0.5-2.6,1.5-3.6c3.8-3.9,7.3-7,10.3-9.7c7.3-6.5,9.9-9,9.6-13.9
		c-0.4-3-1-5.9-1.9-8.8c-2.2-8.1-4.7-17.2-0.4-24.5c2.3-3.9,6.1-6.6,11.5-8c2.9-0.7,5.7,1.1,6.4,3.9c0.7,2.8-1,5.6-3.7,6.4
		c-3.8,1-4.7,2.5-5,3.1c-2,3.4-0.1,10.6,1.5,16.3c1.1,3.6,1.9,7.3,2.3,11.1c0.5,10.2-5.5,15.6-13.2,22.4c-2.9,2.6-6.2,5.5-9.7,9.1
		C314.3,227.7,312.9,228.3,311.5,228.3z"/>
	<path class="st15" d="M323.1,151.9l8.3-2.1l-1.9,10.6c0,0-7.5,0.2-8-3.7L323.1,151.9z"/>
	<path class="st15" d="M337.3,155.4l-0.6,2.8c-0.4,1.8-2.1,2.9-3.9,2.7l-3.3-0.4l1.9-10.6l3.8,1.6
		C336.8,152.1,337.7,153.8,337.3,155.4z"/>
	<path class="st1" d="M308.3,210.6l0.2,0.2c1,1,1,2.7,0,3.7L279,244c-1,1-2.7,1-3.7,0l-0.2-0.2c-1-1-1-2.7,0-3.7l29.5-29.5
		C305.6,209.6,307.2,209.6,308.3,210.6z"/>
	<path class="st1" d="M323.6,225.9l0.2,0.2c1,1,1,2.7,0,3.7l-29.5,29.5c-1,1-2.7,1-3.7,0l-0.2-0.2c-1-1-1-2.7,0-3.7l29.5-29.5
		C321,224.9,322.6,224.9,323.6,225.9z"/>
	<path class="st3" d="M284.4,221.8l20.8-20.8c2.8-2.8,7.3-2.8,10.1,0c0,0,0,0,0,0l18.2,18.2c2.8,2.8,2.8,7.3,0,10.1l0,0l-20.8,20.8
		l0,0L284.4,221.8L284.4,221.8z"/>
	<path class="st12" d="M284.4,221.8l20.8-20.8c2.8-2.8,7.3-2.8,10.1,0c0,0,0,0,0,0l18.2,18.2c2.8,2.8,2.8,7.3,0,10.1l0,0l-20.8,20.8
		l0,0L284.4,221.8L284.4,221.8z"/>
	<path class="st13" d="M291.6,214.6l-7.2,7.2l28.3,28.3l7.2-7.2c-0.3-0.8-0.8-1.6-1.4-2.2L293.8,216
		C293.2,215.4,292.4,214.9,291.6,214.6z"/>
	<path class="st14" d="M282.6,218.6l0.5-0.5c2.2-2.2,5.8-2.2,7.9,0l25.2,25.2c2.2,2.2,2.2,5.8,0,7.9l-0.5,0.5
		c-2.2,2.2-5.8,2.2-7.9,0l-25.2-25.2C280.5,224.4,280.5,220.8,282.6,218.6z"/>
</g>
</svg>
