<?xml version="1.0" encoding="utf-8"?>
<!-- Generator: Adobe Illustrator 25.2.0, SVG Export Plug-In . SVG Version: 6.00 Build 0)  -->
<svg version="1.1" id="Layer_1" xmlns="http://www.w3.org/2000/svg" xmlns:xlink="http://www.w3.org/1999/xlink" x="0px" y="0px"
	 viewBox="0 0 143.5 116.2" style="enable-background:new 0 0 143.5 116.2;" xml:space="preserve">
<style type="text/css">
	.st0{fill-rule:evenodd;clip-rule:evenodd;fill:#FFFFFF;stroke:#5180C1;stroke-width:2.0001;stroke-miterlimit:2.6131;}
	.st1{fill-rule:evenodd;clip-rule:evenodd;fill:url(#SVGID_1_);}
</style>
<path class="st0" d="M14.1,1h113.4c8.1,0,14.8,6.7,14.8,14.8v84.5c0,8.1-6.5,14.8-14.5,15.1L70.2,58.8l-56.3,56.3
	C6.7,113.5,1.3,107,1.3,99.4V13.8C1.3,6.8,7.1,1,14.1,1z"/>
<radialGradient id="SVGID_1_" cx="57.7147" cy="72.6503" r="56.4863" fx="56.2529" fy="75.1982" gradientTransform="matrix(1 0 0 -1 0 115.9354)" gradientUnits="userSpaceOnUse">
	<stop  offset="9.119739e-02" style="stop-color:#FFFFFF"/>
	<stop  offset="0.788" style="stop-color:#5082C2"/>
</radialGradient>
<path class="st1" d="M71.7,12.6c22.9,0,41.5,18.6,41.5,41.5c0,12.6-5.6,23.9-14.5,31.5L70.1,57.4L43.2,84.3c-8-7.6-13-18.3-13-30.2
	C30.2,31.2,48.8,12.6,71.7,12.6z"/>
</svg>
